HIERARCHY
ROOT Pelvis
{
	OFFSET 0.000000 0.000000 0.000000
	CHANNELS 6 Xposition Yposition Zposition Zrotation Yrotation Xrotation 
	JOINT Left_hip
	{
		OFFSET 0.068973 -0.091024 -0.007589
		CHANNELS 3 Zrotation Yrotation Xrotation
		JOINT Left_knee
		{
			OFFSET 0.036482 -0.391037 -0.003979
			CHANNELS 3 Zrotation Yrotation Xrotation
			JOINT Left_ankle
			{
				OFFSET -0.012239 -0.415469 -0.043440
				CHANNELS 3 Zrotation Yrotation Xrotation
				JOINT Left_foot
				{
					OFFSET 0.023806 -0.058558 0.118702
					CHANNELS 3 Zrotation Yrotation Xrotation
					End Site
					{
						OFFSET 0.000000 0.000000 0.000000
					}
				}
			}
		}
	}
	JOINT Right_hip
	{
		OFFSET -0.066552 -0.090468 -0.003847
		CHANNELS 3 Zrotation Yrotation Xrotation
		JOINT Right_knee
		{
			OFFSET -0.042435 -0.398340 -0.006400
			CHANNELS 3 Zrotation Yrotation Xrotation
			JOINT Right_ankle
			{
				OFFSET 0.014931 -0.415421 -0.041327
				CHANNELS 3 Zrotation Yrotation Xrotation
				JOINT Right_foot
				{
					OFFSET -0.021472 -0.049410 0.121889
					CHANNELS 3 Zrotation Yrotation Xrotation
					End Site
					{
						OFFSET 0.000000 0.000000 0.000000
					}
				}
			}
		}
	}
	JOINT Spine1
	{
		OFFSET -0.002904 0.105700 -0.022855
		CHANNELS 3 Zrotation Yrotation Xrotation
		JOINT Spine2
		{
			OFFSET 0.004179 0.132554 -0.002501
			CHANNELS 3 Zrotation Yrotation Xrotation
			JOINT Spine3
			{
				OFFSET 0.001987 0.049603 0.025988
				CHANNELS 3 Zrotation Yrotation Xrotation
				JOINT Neck
				{
					OFFSET -0.003935 0.211336 -0.045638
					CHANNELS 3 Zrotation Yrotation Xrotation
					JOINT Head
					{
						OFFSET 0.003906 0.065991 0.051018
						CHANNELS 3 Zrotation Yrotation Xrotation
						End Site
						{
							OFFSET 0.000000 0.000000 0.000000
						}
					}
				}
				JOINT Left_collar
				{
					OFFSET 0.072882 0.117751 -0.036270
					CHANNELS 3 Zrotation Yrotation Xrotation
					JOINT Left_shoulder
					{
						OFFSET 0.082118 0.032630 -0.005771
						CHANNELS 3 Zrotation Yrotation Xrotation
						JOINT Left_elbow
						{
							OFFSET 0.263305 -0.015144 -0.028095
							CHANNELS 3 Zrotation Yrotation Xrotation
							JOINT Left_wrist
							{
								OFFSET 0.250741 0.010115 -0.000759
								CHANNELS 3 Zrotation Yrotation Xrotation
								JOINT Left_palm
								{
									OFFSET 0.080683 -0.009989 -0.013613
									CHANNELS 3 Zrotation Yrotation Xrotation
									End Site
									{
										OFFSET 0.000000 0.000000 0.000000
									}
								}
							}
						}
					}
				}
				JOINT Right_collar
				{
					OFFSET -0.074811 0.116132 -0.040385
					CHANNELS 3 Zrotation Yrotation Xrotation
					JOINT Right_shoulder
					{
						OFFSET -0.085089 0.032943 -0.007484
						CHANNELS 3 Zrotation Yrotation Xrotation
						JOINT Right_elbow
						{
							OFFSET -0.254763 -0.014219 -0.020321
							CHANNELS 3 Zrotation Yrotation Xrotation
							JOINT Right_wrist
							{
								OFFSET -0.256597 0.009233 -0.005063
								CHANNELS 3 Zrotation Yrotation Xrotation
								JOINT Right_palm
								{
									OFFSET -0.080528 -0.007219 -0.010379
									CHANNELS 3 Zrotation Yrotation Xrotation
									End Site
									{
										OFFSET 0.000000 0.000000 0.000000
									}
								}
							}
						}
					}
				}
			}
		}
	}
}
MOTION
Frames: 14
Frame Time: 0.100000
0.225805 0.957469 -0.271095 -177.449298 26.094057 -102.814508 2.325066 4.962220 3.771504 -1.467607 -10.196879 -2.029017 2.608343 3.485284 13.806136 -20.393707 10.182007 -19.875901 -11.356438 -13.291610 0.978825 -1.167056 -12.173927 -0.508073 19.517274 -17.626838 11.346759 -27.431801 2.124221 8.382592 7.890371 1.106382 18.565904 -2.517199 -3.122076 16.336913 0.704247 1.295518 22.616937 -5.741783 4.344997 54.927923 10.127948 1.774042 -18.612080 -0.479948 -3.185048 11.482231 -73.666323 25.732732 -15.545286 24.326588 -75.090589 10.725966 9.124532 -14.434030 13.252785 -23.712688 -10.234819 -22.545764 -14.664212 0.294987 17.336624 87.738010 -40.217509 -29.360300 132.423059 64.323347 172.924627 -0.426912 22.959088 11.214317 27.286174 6.923364 -17.529065 
0.224337 0.957639 -0.270751 -178.155833 26.289761 -103.243842 2.271175 5.182822 3.354256 -1.666405 -9.239346 -1.297855 2.714498 3.631189 14.091371 -20.402270 10.023290 -19.936182 -12.084730 -13.461472 0.879791 -1.214131 -12.107451 -0.000102 19.989932 -17.651131 13.899886 -27.722371 1.842900 7.462545 8.109454 0.969567 18.498790 -2.274138 -3.396787 16.425791 0.750541 1.135993 22.603373 -5.763963 4.430103 54.502898 10.031850 1.939084 -18.828190 -0.842161 -3.714339 11.567117 -73.141228 25.773792 -15.509207 23.065699 -75.101856 11.796049 9.314573 -14.613605 12.804416 -23.801015 -10.364936 -22.406983 -14.542577 0.036412 17.499792 88.143371 -41.082323 -30.347100 133.667652 63.475286 173.867639 -0.325566 22.948519 11.405144 27.595630 7.233973 -17.941851 
0.223715 0.959792 -0.271681 -178.098226 25.964710 -103.617685 2.659681 5.685108 3.545885 -1.580661 -8.988712 -1.024394 2.718061 3.811195 13.860151 -20.326331 9.890233 -20.260863 -11.640136 -13.366419 -0.036160 -2.033707 -11.966828 2.167381 20.283982 -17.968676 14.070365 -28.293203 1.996817 7.127550 8.531864 0.472978 19.114787 -2.280650 -3.283094 16.174036 0.690683 1.248671 22.813497 -5.619282 4.479310 54.435409 10.177393 2.040650 -18.721849 -0.866594 -4.086548 11.534385 -73.524357 25.611442 -15.685145 23.504840 -75.000487 11.560557 9.410922 -14.474681 12.513923 -24.113378 -10.648953 -22.224703 -14.901064 0.268631 17.565371 88.477485 -40.951337 -30.698933 133.836636 63.292187 174.245029 -0.547981 22.931113 10.916685 27.798861 7.323953 -17.821451 
0.224442 0.959193 -0.271096 -177.620072 26.214588 -102.826503 2.590548 5.504274 3.303736 -1.731788 -8.518798 -1.642880 2.837544 3.846419 14.006873 -20.413839 9.421767 -20.031877 -11.364508 -12.763468 0.756656 -1.563577 -10.953626 -1.192746 21.337638 -18.100123 17.410461 -29.467591 2.185538 6.088642 8.087835 0.697942 18.512571 -2.897161 -3.364077 15.815749 0.265613 1.428545 23.083960 -6.346427 5.279790 54.423114 10.017616 2.742154 -18.270345 -0.596401 -4.122120 11.699914 -74.043443 26.304571 -16.262500 26.190171 -75.109645 8.976597 9.597307 -14.561665 12.000073 -23.387324 -9.860983 -21.741219 -15.276015 0.693553 17.601065 88.304731 -39.964239 -29.794884 131.880394 63.554205 172.498600 -0.429713 22.819004 11.238880 27.130864 6.667603 -17.397324 
0.225834 0.958450 -0.269214 -177.140643 26.596378 -102.128193 2.672632 5.903638 3.783273 -1.786301 -7.398087 -3.367306 3.043070 4.225209 14.689993 -20.494859 8.710056 -19.631736 -11.472671 -12.422851 0.348811 -1.412373 -10.193215 -2.091452 22.960200 -18.170500 20.786802 -31.097707 2.442064 4.289383 7.201736 0.728634 18.060359 -3.918716 -3.230117 15.353460 -0.399039 1.619498 23.355145 -7.760028 6.427276 53.510007 9.507616 3.644009 -18.581593 -0.064567 -4.006173 11.842258 -74.742912 27.762181 -17.217470 29.956249 -75.811106 5.444324 10.052436 -14.497320 11.548361 -22.300513 -8.967011 -21.350107 -15.629647 1.175778 17.538571 87.667116 -38.526570 -28.245085 128.678212 64.015113 169.454566 -0.479042 22.646378 11.491664 26.119186 5.785336 -16.963224 
0.226318 0.959489 -0.269039 -176.845922 26.107174 -102.116856 3.564802 6.616632 3.580055 -1.807234 -6.287680 -2.842085 2.913014 4.535079 14.720656 -20.170696 8.432868 -19.594935 -11.068946 -12.554042 0.103131 -1.567977 -10.763008 -1.571251 22.827348 -18.489788 21.887822 -30.941131 2.461450 4.062557 7.103692 0.594497 18.209738 -3.978128 -3.019609 15.663753 -0.440067 1.651465 23.285825 -8.161225 7.536007 52.344956 8.209171 3.445743 -19.229310 -0.187978 -4.275480 12.192292 -75.527109 28.075421 -17.916209 33.847772 -76.265028 1.666661 10.345753 -14.266766 11.381660 -22.200797 -8.928393 -21.360362 -15.028992 1.842324 17.654869 87.154584 -37.902080 -27.807682 128.842374 64.653036 169.810516 -1.121562 22.351288 11.317412 26.167955 5.611300 -16.781804 
0.224638 0.959652 -0.270254 -177.207132 25.977815 -102.576917 3.252926 6.090096 3.287271 -1.842243 -7.275712 -1.725452 2.935260 4.135195 14.269152 -20.444187 8.588388 -19.796675 -11.490750 -13.127346 0.771693 -1.550004 -11.763298 -1.688772 22.345916 -18.922932 20.938442 -30.517186 2.390951 4.530508 7.327512 0.695025 18.231847 -3.754437 -3.235971 15.808663 -0.172209 1.488737 23.516797 -8.156524 7.744069 52.468395 7.915982 3.698055 -19.396240 0.019812 -4.811540 12.368426 -76.225754 27.620219 -18.129621 33.442615 -76.283446 2.056040 10.345118 -14.099913 11.312644 -22.659520 -9.140569 -21.550117 -15.244100 2.225931 17.697388 87.535027 -38.107946 -28.393494 129.563906 64.744377 170.507124 -1.120114 22.306970 11.170067 26.654205 5.932808 -17.034925 
0.224732 0.960073 -0.270509 -177.216948 25.977112 -102.645753 3.101885 5.907351 3.362137 -1.813471 -7.640075 -1.704589 3.150854 4.055637 13.461576 -20.794038 8.746093 -19.701512 -11.393026 -12.979233 0.797678 -1.559817 -11.457900 -1.624232 22.447359 -18.704182 20.546361 -30.358720 2.371662 4.698178 7.344511 0.731687 18.301021 -3.632386 -3.249009 15.888498 -0.087570 1.489990 23.546381 -7.886034 7.707294 52.512503 8.090549 3.747011 -19.263548 0.054745 -4.922229 12.288460 -76.277721 27.420337 -18.012928 33.205591 -76.136336 2.301249 10.263296 -14.101180 11.410849 -22.669695 -9.155093 -21.654854 -15.278393 2.243952 17.718215 87.719035 -38.147657 -28.556113 129.942927 64.760162 170.919301 -1.125193 22.355924 11.089108 26.679505 5.904018 -17.018763 
0.225071 0.960508 -0.270078 -176.855964 26.101424 -102.520049 3.042297 5.890884 3.318526 -1.780879 -7.425614 -1.503148 3.307163 4.275473 13.264296 -20.956957 8.701770 -19.767363 -11.196119 -12.700686 0.596376 -1.660666 -10.963286 -1.557684 22.665858 -18.606994 20.646273 -30.710753 2.508338 4.572244 7.413830 0.783754 18.395320 -3.704469 -3.112800 15.829613 -0.160716 1.620733 23.598839 -8.011419 7.680815 52.513539 8.270231 3.550306 -19.192546 0.211168 -4.924008 12.134675 -76.067433 27.390930 -17.884536 32.233395 -76.010800 3.277722 10.084288 -14.159842 11.413687 -22.556524 -9.108526 -21.679872 -15.426418 2.187288 17.728462 88.096662 -38.249025 -28.765831 130.120490 64.524402 171.101953 -1.062704 22.430904 10.928288 26.654182 5.846993 -17.026559 
0.225023 0.960656 -0.269894 -176.889643 26.179566 -102.553725 2.951077 5.880337 3.294876 -1.790688 -7.451343 -1.453539 3.292615 4.201473 13.329275 -21.030340 8.745189 -19.825134 -11.358757 -12.795968 0.651627 -1.643725 -11.144729 -1.579272 22.587670 -18.703897 20.613021 -30.625545 2.488745 4.660644 7.508494 0.821238 18.372221 -3.595165 -3.116542 15.817554 -0.096563 1.615929 23.627731 -7.875425 7.576385 52.550268 8.365621 3.384033 -19.148855 0.271762 -5.025212 12.096679 -75.841313 27.207650 -17.715135 30.941864 -75.887760 4.493566 9.992263 -14.212901 11.406274 -22.645286 -9.207169 -21.780039 -15.444476 2.118804 17.790943 88.452439 -38.573951 -29.165808 130.728699 64.273817 171.629885 -1.025382 22.465031 10.835813 26.776364 5.991595 -17.192552 
0.224879 0.960537 -0.270031 -177.004992 26.179251 -102.566080 2.952205 5.922758 3.307303 -1.808264 -7.421366 -1.609935 3.176449 4.116774 13.644860 -20.964245 8.803046 -19.774423 -11.578811 -13.060863 0.654881 -1.593838 -11.622436 -1.533835 22.479575 -18.868492 20.909813 -30.474944 2.340150 4.636913 7.496054 0.813901 18.277287 -3.526012 -3.168182 15.831480 -0.055111 1.568797 23.639651 -7.631338 7.188333 52.716677 8.593545 3.328673 -19.127846 0.162972 -5.052083 12.152943 -75.802117 27.154439 -17.664755 30.971501 -75.848551 4.381615 10.039932 -14.184686 11.402888 -22.743901 -9.264094 -21.781765 -15.505006 2.099708 17.784579 88.450525 -38.670373 -29.283334 130.751458 64.149755 171.593228 -0.933981 22.412569 10.936867 26.782917 6.089908 -17.265107 
0.224894 0.960572 -0.270006 -176.937289 26.133550 -102.557987 2.992125 5.885197 3.260418 -1.809293 -7.500043 -1.488460 3.159875 4.059569 13.712115 -20.989441 8.846413 -19.833171 -11.525665 -13.075470 0.658467 -1.604180 -11.695688 -1.520591 22.422409 -18.913116 20.804824 -30.484601 2.339555 4.702018 7.461866 0.836424 18.304028 -3.512893 -3.148110 15.826237 -0.039368 1.580555 23.641937 -7.529854 6.960446 52.932793 8.771156 3.142315 -19.055845 0.268921 -4.986163 12.141555 -75.900902 27.137648 -17.664528 30.916507 -75.894638 4.471080 9.985374 -14.156537 11.410906 -22.783593 -9.269184 -21.804414 -15.585709 2.156998 17.772365 88.420819 -38.614017 -29.197704 130.638075 64.188462 171.522666 -0.935290 22.416347 10.860813 26.764955 6.064961 -17.240153 
0.224857 0.960605 -0.269994 -176.891410 26.120421 -102.566082 2.930131 5.739664 3.220667 -1.793934 -7.711533 -1.363473 3.162124 3.964253 13.805314 -20.999978 8.864594 -19.910009 -11.476419 -13.020804 0.685061 -1.618305 -11.615905 -1.540198 22.416910 -18.908750 20.735171 -30.538808 2.357368 4.713851 7.474927 0.860660 18.320332 -3.523545 -3.143887 15.826731 -0.031521 1.589631 23.637409 -7.630948 6.908566 53.028101 8.815106 3.096225 -19.063320 0.297491 -5.015785 12.142768 -75.950735 27.144881 -17.679281 30.961414 -75.889662 4.425667 9.977539 -14.164077 11.351969 -22.816848 -9.260519 -21.768298 -15.619932 2.208720 17.764145 88.463982 -38.614149 -29.197574 130.645406 64.228219 171.538680 -0.929374 22.446179 10.796923 26.795529 6.057098 -17.223342 
0.224864 0.960649 -0.269998 -176.892666 26.128866 -102.528605 2.940398 5.776206 3.237013 -1.800970 -7.697083 -1.467110 3.148684 3.900732 13.822912 -21.100358 8.877209 -19.914069 -11.523607 -13.097795 0.666413 -1.599314 -11.768189 -1.580693 22.447370 -18.958000 20.838712 -30.540470 2.337216 4.727599 7.472550 0.871427 18.275760 -3.507449 -3.129590 15.768590 -0.012572 1.596988 23.673696 -7.584681 6.918505 53.097570 8.851779 3.052026 -19.112472 0.394770 -5.061712 12.106555 -75.997271 27.125326 -17.672265 30.665770 -75.853540 4.707164 9.928694 -14.165096 11.333034 -22.823550 -9.266530 -21.833259 -15.704282 2.241357 17.765334 88.586665 -38.646652 -29.284992 130.601089 64.199238 171.491122 -0.904290 22.442508 10.762082 26.806616 6.073692 -17.289336 
